<?xml version="1.0" encoding="UTF-8"?>
<svg id="Layer_2" data-name="Layer 2" xmlns="http://www.w3.org/2000/svg" viewBox="0 0 487.58 219.38">
  <defs>
    <style>
      .cls-1 {
        fill: #333434;
      }
    </style>
  </defs>
  <g id="Layer_1-2" data-name="Layer 1">
    <g>
      <path class="cls-1" d="M263.86,147.53c2.21-1.74,4.15-3.38,6.19-4.87,12.04-8.79,22.97-18.87,33.9-28.96,4.46-4.12,8.76-8.39,12.55-13.15.74-.92,1.67-1.7,2.55-2.5.41-.37,1-.7,1.48-.28.3.26.46.85.46,1.29-.07,2.94-1.24,5.49-2.91,7.85-1.56,2.21-3.58,3.99-5.54,5.81-7.39,6.88-14.69,13.86-22.22,20.58-6.79,6.07-13.57,12.13-19.93,18.65-4.45,4.56-8.67,9.32-12.4,14.49-1.48,2.04-2.35,4.36-3.15,6.72-.02.05-.03.1-.04.14-.7,2.97.91,4.74,3.9,4.2,10.33-1.89,19.52-6.07,26.96-13.66,2.51-2.56,4.94-5.19,7.41-7.78.45-.47.91-.92,1.38-1.36,2.98-2.82,7.02-.59,7.68,2.72.23,1.15.15,2.3-.36,3.36-.74,1.52-1.55,3-2.33,4.5-.37.71-.79,1.39-1.06,2.13-.78,2.07.41,3.84,2.61,3.68,1.47-.11,2.95-.48,4.34-.98,5.35-1.91,10.53-4.18,15.1-7.65,3.07-2.33,5.67-5.14,8.18-8.03.67-.78,1.44-1.36,2.4-1.7,1.28-.45,1.96-.17,2.55,1.04.11.22.18.46.26.69.68,2,1.86,3.57,3.71,4.68,3.27,1.95,4.73,4.99,4.43,8.67-.47,5.69,3.06,9.83,7.38,11.61,3.99,1.64,8.21,1.92,12.47,1.62,6.26-.44,12.45-1.36,18.64-2.4,5.2-.87,10.41-1.65,15.6-2.61,2.68-.49,5.32-1.24,7.97-1.93,6.21-1.6,12.43-3.17,18.61-4.88,4.02-1.11,8-2.39,11.96-3.71,6.36-2.12,12.73-4.23,19.01-6.56,6.06-2.24,12.03-4.72,18.01-7.16,4.83-1.97,9.62-4.05,14.43-6.07.44-.19.92-.29,1.56-.48-.16,1.91-.84,3.31-2.21,4.36-4.53,3.45-9.42,6.28-14.64,8.56-7.8,3.41-15.86,6.07-24,8.53-7.33,2.22-14.64,4.47-22,6.57-6.59,1.88-13.22,3.65-19.86,5.35-6.5,1.66-13.02,3.24-19.56,4.72-5.86,1.33-11.75,2.59-17.67,3.66-6.44,1.17-12.89,1.06-19.22-.75-6.65-1.9-11-6.17-12.87-12.86-.38-1.34-.64-2.7-.91-4.07-.45-2.26-1.67-3.62-3.6-3.81-1.17-.12-2.25.24-3.27.84-3.81,2.26-7.62,4.49-11.43,6.75-3.65,2.17-7.44,4.02-11.58,5.03-1.64.4-3.31.77-4.98.91-3.33.28-6.21-.92-8.4-3.4-2.21-2.51-2.65-1.87-4.81-.8-5.04,2.48-10.05,5.01-15.12,7.43-3.83,1.83-7.86,3.13-12.1,3.59-3.54.39-6.83-.22-9.65-2.6-.91-.77-2.01-1.01-3.22-.69-2.31.6-4.26,1.89-6.18,3.22-3.45,2.4-6.3,5.46-9.26,8.41-6.3,6.28-12.56,12.6-18.88,18.85-1.59,1.57-3.36,2.96-5.08,4.38-1.17.97-2.59,1.47-4.04,1.85-1.19.31-2.13-.62-1.78-1.79.6-2,1.34-3.89,2.9-5.45,8.96-8.91,17.93-17.8,27.19-26.41,6.43-5.98,11.42-13.1,15.74-20.7,2.85-5.02,5.23-10.27,7.51-15.56.44-1.03.66-2.08.32-3.26-1.06,0-1.98.16-2.9.81-5.26,3.71-10.04,7.98-14.64,12.47-6.23,6.08-12.45,12.17-19.17,17.72-5.92,4.89-12.13,9.35-18.95,12.9-3.67,1.91-7.47,3.27-11.71,2.88-4.39-.41-7.73-2.35-9.61-6.49-.73-1.61-1.44-1.86-2.87-.81-1.93,1.4-3.74,2.96-5.58,4.48-7.16,5.93-14.26,11.94-21.5,17.79-2.85,2.31-5.93,4.36-9.04,6.32-1.48.93-3.28,1.38-4.94,2.04-.61.24-1.22.14-1.62-.37-.43-.54-.24-1.16.13-1.67,1.67-2.35,3.3-4.71,5.54-6.6,12.1-10.18,24.14-20.44,36.25-30.61,4.53-3.81,8.06-8.31,10.72-13.6,2.91-5.77,5.84-11.53,8.14-17.58.83-2.17,1.43-4.43,2.12-6.66.09-.28.12-.59.1-.88-.06-.92-.53-1.25-1.41-.93-.6.22-1.16.55-1.75.83-10.19,4.79-19.37,11.15-28.24,17.99-7.72,5.95-15.39,11.97-23.25,17.72-10.53,7.69-21.57,14.6-33,20.89-5.75,3.17-11.53,6.25-17.56,8.87-5.61,2.44-11.33,4.58-17.18,6.36-5.37,1.63-10.76,3.21-16.17,4.7-7.02,1.94-14.14,3.29-21.43,3.64-5.42.26-10.75-.24-15.91-1.9-6.33-2.03-11.03-6.2-14.62-11.69-2.68-4.1-4.41-8.58-4.79-13.49-.42-5.36.95-10.37,3.41-15.08,3.43-6.57,8.3-12,13.77-16.92,6.78-6.11,14.24-11.33,21.81-16.39,17.74-11.86,35.96-22.95,54.59-33.35,6.6-3.68,13.22-7.31,19.84-10.97.56-.31,1.11-.65,1.88-1.1-1-.54-1.77-1.09-2.63-1.4-3.93-1.42-7.88-2.76-11.81-4.14-3.24-1.14-6.45-2.38-9.28-4.37-1.05-.74-2.07-1.57-2.92-2.52-2.46-2.75-2.78-6.19-.86-9.38,2.24-3.73,5.07-7.01,8.09-10.11,11.59-11.92,24.72-21.87,39.27-29.89,8.62-4.74,17.42-9.16,26.25-13.49,7.54-3.7,15.2-7.15,22.87-10.57,7.12-3.18,14.31-6.22,21.73-8.66,3.64-1.2,7.3-2.31,11.12-2.76,1.43-.17,2.88-.12,4.32-.16,1.06-.03,1.62.69,2.02,1.51.13.26,0,.82-.21,1.04-.37.37-.88.64-1.38.85-6.61,2.74-13.2,5.51-19.84,8.18-4.52,1.82-9.13,3.4-13.63,5.24-4.32,1.76-8.62,3.61-12.84,5.61-7.98,3.8-15.98,7.6-23.83,11.66-15.38,7.95-29.82,17.35-42.98,28.63-3.71,3.18-7.22,6.56-9.95,10.66-.63.95-1.13,1.99-1.66,2.99-.96,1.81-.6,3.46.7,4.96,2.09,2.41,4.65,4.17,7.57,5.43,2.72,1.17,5.63,1.64,8.5,2.2,5.32,1.04,10.65,1.98,15.97,3.01,1.66.32,3.3.73,4.91,1.24,2.01.64,2.39,2.13,1.07,3.81-.88,1.12-1.99,1.91-3.32,2.44-4.76,1.88-9.57,3.66-14.24,5.74-4.99,2.23-9.88,4.68-14.74,7.17-6.15,3.15-12.26,6.38-18.32,9.69-8.91,4.87-17.44,10.35-25.95,15.87-8.63,5.61-17.23,11.25-25.85,16.88-5.53,3.61-10.56,7.78-14.69,12.97-2.99,3.76-5.54,7.78-6.88,12.45-1.28,4.46-1.46,8.93.15,13.35,2.04,5.58,6.03,9.25,11.5,11.37,3.19,1.24,6.52,1.73,9.93,1.75,5.93.04,11.84-.35,17.74-.86,3.57-.31,7.14-.67,10.59-1.69,3.05-.89,6.1-1.8,9.11-2.83,5.22-1.79,10.46-3.52,15.58-5.55,6.32-2.51,12.6-5.17,18.78-8,7.55-3.46,14.84-7.45,21.84-11.93,7.42-4.75,14.5-9.98,21.41-15.43,9.96-7.85,19.91-15.72,30.31-22.99,3.38-2.36,6.85-4.59,10.36-6.76,2.12-1.31,4.45-2.23,6.92-2.67,1.01-.18,2.09-.27,3.11-.14,2.13.28,3.62,1.53,4.49,3.5.78,1.77.96,3.64.97,5.54,0,1.94,0,3.88,0,5.82,0,.43.04.86.07,1.51.54-.44.94-.71,1.28-1.04,4.67-4.46,9.36-8.92,14-13.41,8.05-7.78,15.9-15.76,24.43-23.03,4.16-3.55,8.38-7.03,12.61-10.5,2.17-1.78,4.56-3.22,7.34-3.84.71-.16,1.49-.23,2.21-.13,1.11.15,1.4.9.78,1.82-.19.29-.46.52-.69.78-2.97,3.29-6.13,6.37-9.51,9.26-9.16,7.82-17.8,16.2-26.25,24.77-10.93,11.09-21.84,22.21-32.73,33.33-4.81,4.91-8.68,10.47-11.37,16.83-.15.37-.31.73-.44,1.11-.47,1.37.27,2.53,1.72,2.6.58.03,1.18-.1,1.77-.21,5.5-1.04,10.22-3.73,14.74-6.9,6.86-4.81,13.14-10.32,19.22-16.06,5.46-5.16,10.97-10.26,17.12-14.61,4.17-2.94,8.53-5.48,13.51-6.81,3.14-.84,5.78.14,7.39,2.95.63,1.1.95,2.38,1.33,3.61.26.84.37,1.73.6,2.8"/>
      <path class="cls-1" d="M329.43,123.14c-.15,1.32-.59,2.37-1.36,3.34-3.12,3.94-6.33,7.8-10.43,10.77-1.72,1.24-3.61,2.25-5.48,3.28-.83.46-1.84.79-2.61-.1-.78-.91-1.01-2.04-.59-3.2.79-2.16,2.32-3.78,3.96-5.33,3.83-3.62,8.26-6.33,13.06-8.46,1.22-.54,1.49-.54,3.45-.31"/>
    </g>
  </g>
</svg>